# xmcd CD database file
#
# Track frame offsets:
#	182
#	17330
#	35895
#	48845
#	67507
#	80612
#	92430
#	105077
#	126867
#	141815
#	156282
#	174060
#	183032
#	196955
#
# Disc length: 2808 seconds
#
# Revision: 0
# Processed by: cddbd v1.5PL3 Copyright (c) Steve Scherf et al.
# Submitted via: CDex 1.40Beta8
#
DISCID=9b0af60e
DTITLE=Jonny Hill - Wieder mal auf Tournee
DYEAR=1900
DGENRE=Country
TTITLE0=Wo der Mond versinkt
TTITLE1=Wieder mal auf Tournee
TTITLE2=Mein lied für dich
TTITLE3=Sylvia`s Mutter
TTITLE4=Und Überhaupt
TTITLE5=Ich komme nicht los
TTITLE6=Freunde
TTITLE7=Ruf Teddybär eins-vier
TTITLE8=Wie heißt deine Mama
TTITLE9=Vielleicht bist du auch allein
TTITLE10=Mal bist du traurig, mal bistdu froh
TTITLE11=Ein Ring aus Feuer
TTITLE12=Mutter Theresa
TTITLE13=Ich lösche das Licht aus
EXTD=ID3G: 2
EXTT0=
EXTT1=
EXTT2=
EXTT3=
EXTT4=
EXTT5=
EXTT6=
EXTT7=
EXTT8=
EXTT9=
EXTT10=
EXTT11=
EXTT12=
EXTT13=
PLAYORDER=
